<svg width="406" height="478" viewBox="0 0 406 478" fill="none" xmlns="http://www.w3.org/2000/svg">
<rect width="406" height="478" rx="12" fill="#240A51"/>
<path d="M101.207 230.545V248H97.517V230.545H101.207ZM104.175 248V234.909H107.636V237.219H107.789C108.062 236.452 108.516 235.847 109.153 235.403C109.789 234.96 110.55 234.739 111.437 234.739C112.335 234.739 113.099 234.963 113.729 235.412C114.36 235.855 114.781 236.457 114.991 237.219H115.127C115.394 236.469 115.877 235.869 116.576 235.42C117.281 234.966 118.113 234.739 119.073 234.739C120.295 234.739 121.286 235.128 122.048 235.906C122.815 236.679 123.198 237.776 123.198 239.196V248H119.576V239.912C119.576 239.185 119.383 238.639 118.996 238.276C118.61 237.912 118.127 237.73 117.548 237.73C116.888 237.73 116.374 237.94 116.005 238.361C115.636 238.776 115.451 239.324 115.451 240.006V248H111.931V239.835C111.931 239.193 111.746 238.682 111.377 238.301C111.013 237.92 110.533 237.73 109.937 237.73C109.533 237.73 109.17 237.832 108.846 238.037C108.528 238.236 108.275 238.517 108.087 238.881C107.9 239.239 107.806 239.659 107.806 240.142V248H104.175ZM129.799 248.247C128.964 248.247 128.219 248.102 127.566 247.812C126.913 247.517 126.396 247.082 126.015 246.509C125.64 245.929 125.452 245.207 125.452 244.344C125.452 243.616 125.586 243.006 125.853 242.511C126.12 242.017 126.484 241.619 126.944 241.318C127.404 241.017 127.927 240.79 128.512 240.636C129.103 240.483 129.722 240.375 130.37 240.312C131.131 240.233 131.745 240.159 132.211 240.091C132.677 240.017 133.015 239.909 133.225 239.767C133.435 239.625 133.54 239.415 133.54 239.136V239.085C133.54 238.545 133.37 238.128 133.029 237.832C132.694 237.537 132.217 237.389 131.597 237.389C130.944 237.389 130.424 237.534 130.038 237.824C129.651 238.108 129.396 238.466 129.271 238.898L125.913 238.625C126.083 237.83 126.418 237.142 126.918 236.562C127.418 235.977 128.063 235.528 128.853 235.216C129.648 234.898 130.569 234.739 131.614 234.739C132.342 234.739 133.038 234.824 133.702 234.994C134.373 235.165 134.967 235.429 135.484 235.787C136.006 236.145 136.418 236.605 136.719 237.168C137.021 237.724 137.171 238.392 137.171 239.17V248H133.728V246.185H133.626C133.415 246.594 133.134 246.955 132.782 247.267C132.43 247.574 132.006 247.815 131.512 247.991C131.018 248.162 130.447 248.247 129.799 248.247ZM130.839 245.741C131.373 245.741 131.844 245.636 132.254 245.426C132.663 245.21 132.984 244.92 133.217 244.557C133.45 244.193 133.566 243.781 133.566 243.321V241.932C133.452 242.006 133.296 242.074 133.097 242.136C132.904 242.193 132.685 242.247 132.441 242.298C132.197 242.344 131.952 242.386 131.708 242.426C131.464 242.46 131.242 242.491 131.043 242.52C130.617 242.582 130.245 242.682 129.927 242.818C129.609 242.955 129.362 243.139 129.185 243.372C129.009 243.599 128.921 243.884 128.921 244.224C128.921 244.719 129.1 245.097 129.458 245.358C129.822 245.614 130.282 245.741 130.839 245.741ZM145.886 253.182C144.71 253.182 143.701 253.02 142.86 252.696C142.025 252.378 141.36 251.943 140.866 251.392C140.371 250.841 140.05 250.222 139.903 249.534L143.261 249.082C143.363 249.344 143.525 249.588 143.746 249.815C143.968 250.043 144.261 250.224 144.624 250.361C144.994 250.503 145.442 250.574 145.971 250.574C146.761 250.574 147.411 250.381 147.923 249.994C148.44 249.614 148.698 248.974 148.698 248.077V245.682H148.545C148.386 246.045 148.147 246.389 147.829 246.713C147.511 247.037 147.102 247.301 146.602 247.506C146.102 247.71 145.505 247.812 144.812 247.812C143.829 247.812 142.934 247.585 142.127 247.131C141.326 246.67 140.687 245.969 140.21 245.026C139.738 244.077 139.502 242.878 139.502 241.429C139.502 239.946 139.744 238.707 140.227 237.713C140.71 236.719 141.352 235.974 142.153 235.48C142.96 234.986 143.843 234.739 144.803 234.739C145.536 234.739 146.15 234.864 146.644 235.114C147.138 235.358 147.536 235.665 147.837 236.034C148.144 236.398 148.38 236.756 148.545 237.108H148.681V234.909H152.286V248.128C152.286 249.241 152.013 250.173 151.468 250.923C150.923 251.673 150.167 252.236 149.201 252.611C148.241 252.991 147.136 253.182 145.886 253.182ZM145.962 245.085C146.548 245.085 147.042 244.94 147.445 244.651C147.854 244.355 148.167 243.935 148.383 243.389C148.604 242.838 148.715 242.179 148.715 241.412C148.715 240.645 148.607 239.98 148.391 239.418C148.175 238.849 147.863 238.409 147.454 238.097C147.045 237.784 146.548 237.628 145.962 237.628C145.366 237.628 144.863 237.79 144.454 238.114C144.045 238.432 143.735 238.875 143.525 239.443C143.315 240.011 143.21 240.668 143.21 241.412C143.21 242.168 143.315 242.821 143.525 243.372C143.741 243.918 144.05 244.341 144.454 244.642C144.863 244.937 145.366 245.085 145.962 245.085ZM161.141 248.256C159.795 248.256 158.636 247.983 157.664 247.438C156.698 246.886 155.954 246.108 155.431 245.102C154.908 244.091 154.647 242.895 154.647 241.514C154.647 240.168 154.908 238.986 155.431 237.969C155.954 236.952 156.69 236.159 157.638 235.591C158.593 235.023 159.712 234.739 160.996 234.739C161.86 234.739 162.664 234.878 163.408 235.156C164.158 235.429 164.812 235.841 165.369 236.392C165.931 236.943 166.369 237.636 166.681 238.472C166.994 239.301 167.15 240.273 167.15 241.386V242.384H156.096V240.134H163.732C163.732 239.611 163.619 239.148 163.391 238.744C163.164 238.341 162.849 238.026 162.445 237.798C162.048 237.565 161.585 237.449 161.056 237.449C160.505 237.449 160.016 237.577 159.59 237.832C159.17 238.082 158.84 238.42 158.602 238.847C158.363 239.267 158.241 239.736 158.235 240.253V242.392C158.235 243.04 158.354 243.599 158.593 244.071C158.837 244.543 159.181 244.906 159.624 245.162C160.067 245.418 160.593 245.545 161.201 245.545C161.604 245.545 161.974 245.489 162.309 245.375C162.644 245.261 162.931 245.091 163.17 244.864C163.408 244.636 163.59 244.358 163.715 244.028L167.073 244.25C166.903 245.057 166.553 245.761 166.025 246.364C165.502 246.96 164.826 247.426 163.996 247.761C163.173 248.091 162.221 248.256 161.141 248.256ZM175.074 252.909V234.909H178.653V237.108H178.815C178.974 236.756 179.205 236.398 179.506 236.034C179.813 235.665 180.21 235.358 180.699 235.114C181.193 234.864 181.807 234.739 182.54 234.739C183.494 234.739 184.375 234.989 185.182 235.489C185.989 235.983 186.634 236.73 187.116 237.73C187.599 238.724 187.841 239.972 187.841 241.472C187.841 242.932 187.605 244.165 187.134 245.17C186.668 246.17 186.031 246.929 185.224 247.446C184.423 247.957 183.526 248.213 182.531 248.213C181.827 248.213 181.227 248.097 180.733 247.864C180.244 247.631 179.844 247.338 179.531 246.986C179.219 246.628 178.98 246.267 178.815 245.903H178.705V252.909H175.074ZM178.628 241.455C178.628 242.233 178.736 242.912 178.952 243.491C179.168 244.071 179.48 244.523 179.889 244.847C180.298 245.165 180.795 245.324 181.381 245.324C181.972 245.324 182.472 245.162 182.881 244.838C183.29 244.509 183.599 244.054 183.81 243.474C184.026 242.889 184.134 242.216 184.134 241.455C184.134 240.699 184.028 240.034 183.818 239.46C183.608 238.886 183.298 238.437 182.889 238.114C182.48 237.79 181.977 237.628 181.381 237.628C180.79 237.628 180.29 237.784 179.881 238.097C179.477 238.409 179.168 238.852 178.952 239.426C178.736 240 178.628 240.676 178.628 241.455ZM193.892 230.545V248H190.261V230.545H193.892ZM200.533 248.247C199.698 248.247 198.954 248.102 198.3 247.812C197.647 247.517 197.13 247.082 196.749 246.509C196.374 245.929 196.187 245.207 196.187 244.344C196.187 243.616 196.32 243.006 196.587 242.511C196.854 242.017 197.218 241.619 197.678 241.318C198.138 241.017 198.661 240.79 199.246 240.636C199.837 240.483 200.457 240.375 201.104 240.312C201.866 240.233 202.479 240.159 202.945 240.091C203.411 240.017 203.749 239.909 203.96 239.767C204.17 239.625 204.275 239.415 204.275 239.136V239.085C204.275 238.545 204.104 238.128 203.763 237.832C203.428 237.537 202.951 237.389 202.332 237.389C201.678 237.389 201.158 237.534 200.772 237.824C200.386 238.108 200.13 238.466 200.005 238.898L196.647 238.625C196.817 237.83 197.153 237.142 197.653 236.562C198.153 235.977 198.798 235.528 199.587 235.216C200.383 234.898 201.303 234.739 202.349 234.739C203.076 234.739 203.772 234.824 204.437 234.994C205.107 235.165 205.701 235.429 206.218 235.787C206.741 236.145 207.153 236.605 207.454 237.168C207.755 237.724 207.906 238.392 207.906 239.17V248H204.462V246.185H204.36C204.15 246.594 203.869 246.955 203.516 247.267C203.164 247.574 202.741 247.815 202.246 247.991C201.752 248.162 201.181 248.247 200.533 248.247ZM201.573 245.741C202.107 245.741 202.579 245.636 202.988 245.426C203.397 245.21 203.718 244.92 203.951 244.557C204.184 244.193 204.3 243.781 204.3 243.321V241.932C204.187 242.006 204.031 242.074 203.832 242.136C203.638 242.193 203.42 242.247 203.175 242.298C202.931 242.344 202.687 242.386 202.442 242.426C202.198 242.46 201.977 242.491 201.778 242.52C201.352 242.582 200.979 242.682 200.661 242.818C200.343 242.955 200.096 243.139 199.92 243.372C199.744 243.599 199.656 243.884 199.656 244.224C199.656 244.719 199.835 245.097 200.192 245.358C200.556 245.614 201.016 245.741 201.573 245.741ZM216.637 248.256C215.296 248.256 214.143 247.972 213.177 247.403C212.217 246.83 211.478 246.034 210.961 245.017C210.45 244 210.194 242.83 210.194 241.506C210.194 240.165 210.452 238.989 210.969 237.977C211.492 236.96 212.234 236.168 213.194 235.599C214.154 235.026 215.296 234.739 216.62 234.739C217.762 234.739 218.762 234.946 219.62 235.361C220.478 235.776 221.157 236.358 221.657 237.108C222.157 237.858 222.433 238.739 222.484 239.75H219.058C218.961 239.097 218.705 238.571 218.29 238.173C217.881 237.77 217.344 237.568 216.68 237.568C216.117 237.568 215.626 237.722 215.205 238.028C214.79 238.33 214.467 238.77 214.234 239.349C214.001 239.929 213.884 240.631 213.884 241.455C213.884 242.29 213.998 243 214.225 243.585C214.458 244.17 214.785 244.616 215.205 244.923C215.626 245.23 216.117 245.384 216.68 245.384C217.094 245.384 217.467 245.298 217.796 245.128C218.131 244.957 218.407 244.71 218.623 244.386C218.844 244.057 218.989 243.662 219.058 243.202H222.484C222.427 244.202 222.154 245.082 221.665 245.844C221.183 246.599 220.515 247.19 219.663 247.616C218.81 248.043 217.802 248.256 216.637 248.256ZM230.774 248.256C229.428 248.256 228.268 247.983 227.297 247.438C226.331 246.886 225.587 246.108 225.064 245.102C224.541 244.091 224.28 242.895 224.28 241.514C224.28 240.168 224.541 238.986 225.064 237.969C225.587 236.952 226.322 236.159 227.271 235.591C228.226 235.023 229.345 234.739 230.629 234.739C231.493 234.739 232.297 234.878 233.041 235.156C233.791 235.429 234.445 235.841 235.001 236.392C235.564 236.943 236.001 237.636 236.314 238.472C236.626 239.301 236.783 240.273 236.783 241.386V242.384H225.729V240.134H233.365C233.365 239.611 233.251 239.148 233.024 238.744C232.797 238.341 232.482 238.026 232.078 237.798C231.68 237.565 231.217 237.449 230.689 237.449C230.138 237.449 229.649 237.577 229.223 237.832C228.803 238.082 228.473 238.42 228.234 238.847C227.996 239.267 227.874 239.736 227.868 240.253V242.392C227.868 243.04 227.987 243.599 228.226 244.071C228.47 244.543 228.814 244.906 229.257 245.162C229.7 245.418 230.226 245.545 230.834 245.545C231.237 245.545 231.607 245.489 231.942 245.375C232.277 245.261 232.564 245.091 232.803 244.864C233.041 244.636 233.223 244.358 233.348 244.028L236.706 244.25C236.536 245.057 236.186 245.761 235.658 246.364C235.135 246.96 234.459 247.426 233.629 247.761C232.805 248.091 231.854 248.256 230.774 248.256ZM242.783 240.432V248H239.152V230.545H242.68V237.219H242.834C243.129 236.446 243.607 235.841 244.266 235.403C244.925 234.96 245.751 234.739 246.746 234.739C247.655 234.739 248.447 234.938 249.124 235.335C249.805 235.727 250.334 236.293 250.709 237.031C251.089 237.764 251.277 238.642 251.271 239.665V248H247.641V240.312C247.646 239.506 247.442 238.878 247.027 238.429C246.618 237.98 246.044 237.756 245.305 237.756C244.811 237.756 244.374 237.861 243.993 238.071C243.618 238.281 243.322 238.588 243.107 238.991C242.896 239.389 242.788 239.869 242.783 240.432ZM260.043 248.256C258.719 248.256 257.575 247.974 256.609 247.412C255.648 246.844 254.907 246.054 254.384 245.043C253.862 244.026 253.6 242.847 253.6 241.506C253.6 240.153 253.862 238.972 254.384 237.96C254.907 236.943 255.648 236.153 256.609 235.591C257.575 235.023 258.719 234.739 260.043 234.739C261.367 234.739 262.509 235.023 263.469 235.591C264.435 236.153 265.18 236.943 265.702 237.96C266.225 238.972 266.487 240.153 266.487 241.506C266.487 242.847 266.225 244.026 265.702 245.043C265.18 246.054 264.435 246.844 263.469 247.412C262.509 247.974 261.367 248.256 260.043 248.256ZM260.06 245.443C260.663 245.443 261.165 245.273 261.569 244.932C261.972 244.585 262.276 244.114 262.481 243.517C262.691 242.92 262.796 242.241 262.796 241.48C262.796 240.719 262.691 240.04 262.481 239.443C262.276 238.847 261.972 238.375 261.569 238.028C261.165 237.682 260.663 237.509 260.06 237.509C259.452 237.509 258.941 237.682 258.526 238.028C258.117 238.375 257.808 238.847 257.597 239.443C257.393 240.04 257.29 240.719 257.29 241.48C257.29 242.241 257.393 242.92 257.597 243.517C257.808 244.114 258.117 244.585 258.526 244.932C258.941 245.273 259.452 245.443 260.06 245.443ZM272.478 230.545V248H268.847V230.545H272.478ZM280.21 248.213C279.216 248.213 278.315 247.957 277.509 247.446C276.707 246.929 276.071 246.17 275.599 245.17C275.134 244.165 274.901 242.932 274.901 241.472C274.901 239.972 275.142 238.724 275.625 237.73C276.108 236.73 276.75 235.983 277.551 235.489C278.358 234.989 279.241 234.739 280.202 234.739C280.935 234.739 281.545 234.864 282.034 235.114C282.528 235.358 282.926 235.665 283.227 236.034C283.534 236.398 283.767 236.756 283.926 237.108H284.037V230.545H287.659V248H284.08V245.903H283.926C283.756 246.267 283.514 246.628 283.202 246.986C282.895 247.338 282.494 247.631 282 247.864C281.511 248.097 280.915 248.213 280.21 248.213ZM281.361 245.324C281.946 245.324 282.44 245.165 282.844 244.847C283.253 244.523 283.565 244.071 283.781 243.491C284.003 242.912 284.114 242.233 284.114 241.455C284.114 240.676 284.006 240 283.79 239.426C283.574 238.852 283.261 238.409 282.852 238.097C282.443 237.784 281.946 237.628 281.361 237.628C280.764 237.628 280.261 237.79 279.852 238.114C279.443 238.437 279.134 238.886 278.923 239.46C278.713 240.034 278.608 240.699 278.608 241.455C278.608 242.216 278.713 242.889 278.923 243.474C279.139 244.054 279.449 244.509 279.852 244.838C280.261 245.162 280.764 245.324 281.361 245.324ZM296.61 248.256C295.263 248.256 294.104 247.983 293.133 247.438C292.167 246.886 291.423 246.108 290.9 245.102C290.377 244.091 290.116 242.895 290.116 241.514C290.116 240.168 290.377 238.986 290.9 237.969C291.423 236.952 292.158 236.159 293.107 235.591C294.062 235.023 295.181 234.739 296.465 234.739C297.329 234.739 298.133 234.878 298.877 235.156C299.627 235.429 300.281 235.841 300.837 236.392C301.4 236.943 301.837 237.636 302.15 238.472C302.462 239.301 302.619 240.273 302.619 241.386V242.384H291.565V240.134H299.201C299.201 239.611 299.087 239.148 298.86 238.744C298.633 238.341 298.317 238.026 297.914 237.798C297.516 237.565 297.053 237.449 296.525 237.449C295.974 237.449 295.485 237.577 295.059 237.832C294.638 238.082 294.309 238.42 294.07 238.847C293.832 239.267 293.71 239.736 293.704 240.253V242.392C293.704 243.04 293.823 243.599 294.062 244.071C294.306 244.543 294.65 244.906 295.093 245.162C295.536 245.418 296.062 245.545 296.67 245.545C297.073 245.545 297.442 245.489 297.778 245.375C298.113 245.261 298.4 245.091 298.638 244.864C298.877 244.636 299.059 244.358 299.184 244.028L302.542 244.25C302.371 245.057 302.022 245.761 301.494 246.364C300.971 246.96 300.295 247.426 299.465 247.761C298.641 248.091 297.69 248.256 296.61 248.256ZM304.988 248V234.909H308.508V237.193H308.644C308.883 236.381 309.283 235.767 309.846 235.352C310.408 234.932 311.056 234.722 311.789 234.722C311.971 234.722 312.167 234.733 312.377 234.756C312.587 234.778 312.772 234.81 312.931 234.849V238.071C312.761 238.02 312.525 237.974 312.224 237.935C311.923 237.895 311.647 237.875 311.397 237.875C310.863 237.875 310.386 237.991 309.965 238.224C309.55 238.452 309.221 238.77 308.977 239.179C308.738 239.588 308.619 240.06 308.619 240.594V248H304.988Z" fill="white"/>
</svg>
